<svg xmlns="http://www.w3.org/2000/svg" xmlns:xlink="http://www.w3.org/1999/xlink" width="525" height="191" viewBox="0 0 525 191">
  <defs>
    <clipPath id="clip-path">
      <rect id="Rectangle_8" data-name="Rectangle 8" width="525" height="191" transform="translate(271)" fill="#fff" stroke="#707070" stroke-width="1"/>
    </clipPath>
    <linearGradient id="linear-gradient" x1="0.5" x2="0.5" y2="1" gradientUnits="objectBoundingBox">
      <stop offset="0" stop-color="#1a75fc"/>
      <stop offset="1" stop-color="#0d3b7e"/>
    </linearGradient>
  </defs>
  <g id="Mask_Group_2" data-name="Mask Group 2" transform="translate(-271)" clip-path="url(#clip-path)">
    <g id="Group_7" data-name="Group 7">
      <path id="Subtraction_1" data-name="Subtraction 1" d="M264,528a265.95,265.95,0,0,1-53.205-5.364,262.554,262.554,0,0,1-94.4-39.724A264.772,264.772,0,0,1,20.746,366.761,262.673,262.673,0,0,1,5.364,317.205a266.575,266.575,0,0,1,0-106.41,262.553,262.553,0,0,1,39.724-94.4A264.772,264.772,0,0,1,161.239,20.746,262.673,262.673,0,0,1,210.795,5.364a266.575,266.575,0,0,1,106.41,0,262.555,262.555,0,0,1,94.4,39.724,264.771,264.771,0,0,1,95.649,116.152,262.674,262.674,0,0,1,15.383,49.555,266.575,266.575,0,0,1,0,106.41,262.556,262.556,0,0,1-39.724,94.4,264.771,264.771,0,0,1-116.152,95.649,262.675,262.675,0,0,1-49.556,15.383A265.953,265.953,0,0,1,264,528Zm0-503a240.76,240.76,0,0,0-48.167,4.856,237.692,237.692,0,0,0-85.46,35.962A239.7,239.7,0,0,0,43.782,170.97a237.792,237.792,0,0,0-13.926,44.863,241.329,241.329,0,0,0,0,96.334,237.693,237.693,0,0,0,35.962,85.461A239.7,239.7,0,0,0,170.97,484.218a237.793,237.793,0,0,0,44.863,13.926,241.33,241.33,0,0,0,96.334,0,237.692,237.692,0,0,0,85.461-35.962A239.7,239.7,0,0,0,484.218,357.03a237.8,237.8,0,0,0,13.926-44.863,241.33,241.33,0,0,0,0-96.334,237.69,237.69,0,0,0-35.962-85.46A239.7,239.7,0,0,0,357.03,43.782a237.8,237.8,0,0,0-44.863-13.926A240.764,240.764,0,0,0,264,25Z" transform="translate(959.393 -359.322) rotate(115)" opacity="0.041" fill="url(#linear-gradient)"/>
      <path id="Subtraction_2" data-name="Subtraction 2" d="M264,528a265.95,265.95,0,0,1-53.205-5.364,262.554,262.554,0,0,1-94.4-39.724A264.772,264.772,0,0,1,20.746,366.761,262.673,262.673,0,0,1,5.364,317.205a266.575,266.575,0,0,1,0-106.41,262.553,262.553,0,0,1,39.724-94.4A264.772,264.772,0,0,1,161.239,20.746,262.673,262.673,0,0,1,210.795,5.364a266.575,266.575,0,0,1,106.41,0,262.555,262.555,0,0,1,94.4,39.724,264.771,264.771,0,0,1,95.649,116.152,262.674,262.674,0,0,1,15.383,49.555,266.575,266.575,0,0,1,0,106.41,262.556,262.556,0,0,1-39.724,94.4,264.771,264.771,0,0,1-116.152,95.649,262.675,262.675,0,0,1-49.556,15.383A265.953,265.953,0,0,1,264,528Zm0-503a240.76,240.76,0,0,0-48.167,4.856,237.692,237.692,0,0,0-85.46,35.962A239.7,239.7,0,0,0,43.782,170.97a237.792,237.792,0,0,0-13.926,44.863,241.329,241.329,0,0,0,0,96.334,237.693,237.693,0,0,0,35.962,85.461A239.7,239.7,0,0,0,170.97,484.218a237.793,237.793,0,0,0,44.863,13.926,241.33,241.33,0,0,0,96.334,0,237.692,237.692,0,0,0,85.461-35.962A239.7,239.7,0,0,0,484.218,357.03a237.8,237.8,0,0,0,13.926-44.863,241.33,241.33,0,0,0,0-96.334,237.69,237.69,0,0,0-35.962-85.46A239.7,239.7,0,0,0,357.03,43.782a237.8,237.8,0,0,0-44.863-13.926A240.764,240.764,0,0,0,264,25Z" transform="translate(935.727 -308.569) rotate(115)" opacity="0.041" fill="url(#linear-gradient)"/>
      <path id="Subtraction_3" data-name="Subtraction 3" d="M264,528a265.95,265.95,0,0,1-53.205-5.364,262.554,262.554,0,0,1-94.4-39.724A264.772,264.772,0,0,1,20.746,366.761,262.673,262.673,0,0,1,5.364,317.205a266.575,266.575,0,0,1,0-106.41,262.553,262.553,0,0,1,39.724-94.4A264.772,264.772,0,0,1,161.239,20.746,262.673,262.673,0,0,1,210.795,5.364a266.575,266.575,0,0,1,106.41,0,262.555,262.555,0,0,1,94.4,39.724,264.771,264.771,0,0,1,95.649,116.152,262.674,262.674,0,0,1,15.383,49.555,266.575,266.575,0,0,1,0,106.41,262.556,262.556,0,0,1-39.724,94.4,264.771,264.771,0,0,1-116.152,95.649,262.675,262.675,0,0,1-49.556,15.383A265.953,265.953,0,0,1,264,528Zm0-503a240.76,240.76,0,0,0-48.167,4.856,237.692,237.692,0,0,0-85.46,35.962A239.7,239.7,0,0,0,43.782,170.97a237.792,237.792,0,0,0-13.926,44.863,241.329,241.329,0,0,0,0,96.334,237.693,237.693,0,0,0,35.962,85.461A239.7,239.7,0,0,0,170.97,484.218a237.793,237.793,0,0,0,44.863,13.926,241.33,241.33,0,0,0,96.334,0,237.692,237.692,0,0,0,85.461-35.962A239.7,239.7,0,0,0,484.218,357.03a237.8,237.8,0,0,0,13.926-44.863,241.33,241.33,0,0,0,0-96.334,237.69,237.69,0,0,0-35.962-85.46A239.7,239.7,0,0,0,357.03,43.782a237.8,237.8,0,0,0-44.863-13.926A240.764,240.764,0,0,0,264,25Z" transform="translate(910.792 -255.097) rotate(115)" opacity="0.041" fill="url(#linear-gradient)"/>
      <path id="Subtraction_4" data-name="Subtraction 4" d="M264,528a265.95,265.95,0,0,1-53.205-5.364,262.554,262.554,0,0,1-94.4-39.724A264.772,264.772,0,0,1,20.746,366.761,262.673,262.673,0,0,1,5.364,317.205a266.575,266.575,0,0,1,0-106.41,262.553,262.553,0,0,1,39.724-94.4A264.772,264.772,0,0,1,161.239,20.746,262.673,262.673,0,0,1,210.795,5.364a266.575,266.575,0,0,1,106.41,0,262.555,262.555,0,0,1,94.4,39.724,264.771,264.771,0,0,1,95.649,116.152,262.674,262.674,0,0,1,15.383,49.555,266.575,266.575,0,0,1,0,106.41,262.556,262.556,0,0,1-39.724,94.4,264.771,264.771,0,0,1-116.152,95.649,262.675,262.675,0,0,1-49.556,15.383A265.953,265.953,0,0,1,264,528Zm0-503a240.76,240.76,0,0,0-48.167,4.856,237.692,237.692,0,0,0-85.46,35.962A239.7,239.7,0,0,0,43.782,170.97a237.792,237.792,0,0,0-13.926,44.863,241.329,241.329,0,0,0,0,96.334,237.693,237.693,0,0,0,35.962,85.461A239.7,239.7,0,0,0,170.97,484.218a237.793,237.793,0,0,0,44.863,13.926,241.33,241.33,0,0,0,96.334,0,237.692,237.692,0,0,0,85.461-35.962A239.7,239.7,0,0,0,484.218,357.03a237.8,237.8,0,0,0,13.926-44.863,241.33,241.33,0,0,0,0-96.334,237.69,237.69,0,0,0-35.962-85.46A239.7,239.7,0,0,0,357.03,43.782a237.8,237.8,0,0,0-44.863-13.926A240.764,240.764,0,0,0,264,25Z" transform="translate(886.28 -202.531) rotate(115)" opacity="0.041" fill="url(#linear-gradient)"/>
    </g>
  </g>
</svg>
